<?xml version="1.0" standalone="no"?>
<!DOCTYPE svg PUBLIC "-//W3C//DTD SVG 20010904//EN"
 "http://www.w3.org/TR/2001/REC-SVG-20010904/DTD/svg10.dtd">
<svg version="1.0" xmlns="http://www.w3.org/2000/svg"
 width="900.000000pt" height="900.000000pt" viewBox="0 0 900.000000 900.000000"
 preserveAspectRatio="xMidYMid meet">
<metadata>
Created by potrace 1.10, written by Peter Selinger 2001-2011
</metadata>
<g transform="translate(0.000000,900.000000) scale(0.100000,-0.100000)"
fill="#000000" stroke="none">
<path d="M790 8986 c0 -9 -17 -16 -47 -20 -47 -7 -68 -13 -163 -52 -104 -43
-253 -146 -326 -225 -99 -110 -155 -202 -216 -358 -39 -101 -38 8 -38 -3841 0
-2584 3 -3695 11 -3732 41 -203 172 -422 322 -538 28 -23 59 -47 68 -54 28
-23 132 -81 179 -100 84 -34 93 -37 162 -51 60 -13 566 -15 3748 -15 2584 0
3695 3 3732 11 226 46 441 185 577 372 90 125 151 258 167 363 4 28 11 44 20
44 12 0 14 552 14 3700 0 3148 -2 3700 -14 3700 -9 0 -16 17 -21 47 -15 101
-90 264 -169 368 -101 133 -251 250 -396 309 -95 39 -116 45 -162 52 -31 4
-48 11 -48 20 0 12 -552 14 -3700 14 -3148 0 -3700 -2 -3700 -14z m4271 -1606
c110 -25 184 -58 264 -119 69 -53 79 -62 122 -117 27 -34 133 -206 156 -254 4
-8 13 -24 20 -35 7 -11 30 -51 52 -90 22 -38 45 -79 52 -90 7 -11 16 -27 20
-35 4 -8 40 -71 80 -139 40 -67 73 -125 73 -127 0 -2 27 -49 60 -105 33 -55
60 -102 60 -104 0 -2 26 -48 58 -102 32 -54 61 -105 65 -113 4 -8 11 -22 17
-30 14 -21 95 -162 103 -180 4 -8 16 -28 27 -45 11 -16 23 -37 27 -45 4 -8 33
-59 65 -113 32 -55 58 -100 58 -102 0 -2 27 -49 60 -105 33 -56 60 -103 60
-105 0 -2 26 -48 58 -102 32 -54 61 -105 65 -113 4 -8 16 -28 27 -45 11 -16
24 -39 29 -51 5 -11 28 -51 50 -88 23 -36 41 -68 41 -70 0 -3 27 -50 60 -106
33 -56 60 -103 60 -105 0 -2 33 -59 73 -126 40 -68 76 -131 80 -139 4 -8 11
-22 17 -30 17 -27 130 -222 130 -225 0 -2 27 -49 60 -105 33 -56 60 -103 60
-105 0 -2 26 -47 58 -102 32 -54 61 -105 65 -113 4 -8 11 -22 17 -30 15 -24
125 -213 133 -230 4 -8 21 -37 38 -65 75 -124 108 -239 109 -370 0 -130 -36
-243 -123 -382 -13 -21 -26 -45 -30 -53 -4 -8 -11 -22 -17 -30 -14 -21 -95
-162 -103 -180 -4 -8 -16 -28 -27 -45 -11 -16 -23 -37 -27 -45 -4 -8 -32 -58
-63 -110 -31 -52 -59 -102 -63 -110 -4 -8 -11 -22 -17 -30 -14 -21 -95 -162
-103 -180 -4 -8 -16 -28 -27 -45 -11 -16 -23 -37 -26 -45 -23 -52 -48 -44 -84
25 -14 26 -30 54 -35 63 -6 10 -28 48 -50 87 -22 38 -45 79 -52 90 -7 11 -16
27 -20 35 -4 8 -39 69 -78 135 -39 66 -74 127 -78 135 -4 8 -13 24 -20 35 -7
11 -30 51 -52 90 -22 38 -45 79 -52 90 -7 11 -16 27 -20 35 -4 8 -39 69 -78
135 -39 66 -74 127 -78 135 -4 8 -13 24 -20 35 -7 11 -30 52 -52 90 -22 39
-45 79 -52 90 -7 11 -16 27 -20 35 -4 8 -32 58 -63 110 -31 52 -59 102 -63
110 -4 8 -16 29 -27 45 -11 17 -23 37 -27 45 -4 8 -33 59 -65 113 -32 54 -58
100 -58 102 0 2 -26 47 -58 102 -32 54 -61 105 -65 113 -4 8 -16 29 -27 45
-11 17 -23 37 -27 45 -4 8 -33 59 -65 113 -32 54 -58 100 -58 102 0 2 -26 47
-58 102 -32 54 -61 105 -65 113 -4 8 -16 29 -27 45 -11 17 -23 37 -27 45 -4 8
-32 58 -63 110 -31 52 -59 102 -63 110 -4 8 -13 24 -20 35 -7 11 -30 51 -52
90 -22 38 -45 79 -52 90 -7 11 -16 27 -20 35 -4 8 -39 69 -78 135 -39 66 -74
127 -78 135 -4 8 -11 22 -17 30 -24 37 -93 155 -101 174 -5 12 -18 35 -29 51
-11 17 -24 39 -30 50 -6 11 -16 29 -23 40 -7 11 -30 52 -52 90 -22 39 -45 79
-52 90 -7 11 -15 27 -19 35 -4 8 -24 42 -44 75 -20 33 -54 92 -74 130 -21 39
-45 77 -52 86 -8 8 -14 18 -14 22 0 4 -19 39 -43 79 -24 40 -46 80 -50 88 -4
8 -11 22 -17 30 -18 27 -130 220 -130 224 0 2 -40 72 -90 156 -49 84 -90 153
-90 155 0 4 -114 201 -130 225 -6 8 -13 22 -17 30 -4 8 -40 71 -80 139 -40 67
-73 124 -73 126 0 2 -20 38 -45 79 -44 75 -52 96 -38 109 3 4 267 7 585 7 545
0 584 -1 669 -20z m-1797 -972 c8 -18 29 -58 47 -88 31 -54 143 -246 166 -285
7 -11 16 -27 20 -35 4 -8 26 -46 48 -85 23 -38 44 -77 48 -85 4 -8 11 -22 17
-30 13 -20 154 -262 163 -280 4 -8 13 -24 20 -35 7 -11 30 -51 52 -90 22 -38
45 -79 52 -90 7 -11 16 -29 22 -40 5 -11 21 -37 35 -58 14 -21 26 -40 26 -44
0 -3 19 -38 43 -77 24 -39 46 -78 50 -86 4 -8 11 -22 17 -30 16 -25 130 -221
130 -225 0 -2 33 -59 73 -127 40 -68 76 -130 80 -138 4 -8 11 -22 17 -30 14
-21 95 -162 103 -180 4 -8 16 -28 27 -45 11 -16 23 -37 27 -45 4 -8 32 -58 63
-110 31 -52 59 -102 63 -110 4 -8 16 -30 27 -48 11 -18 18 -38 15 -43 -7 -10
-2957 -13 -2968 -3 -3 3 4 22 15 42 18 33 125 216 155 267 7 11 17 31 23 44 6
13 19 35 29 50 10 14 31 49 45 76 15 28 31 57 37 65 18 29 155 265 162 280 4
8 13 24 20 35 7 11 30 52 52 90 22 39 45 79 52 90 7 11 16 27 20 35 4 8 47 82
95 163 48 82 88 150 88 152 0 2 27 49 60 105 33 56 60 103 60 105 0 2 41 71
90 155 50 84 90 153 90 155 0 3 113 199 130 225 6 8 13 22 17 30 4 8 40 71 80
139 40 67 73 125 73 126 0 2 17 32 37 67 52 89 65 96 87 46z m2008 -3502 c10
-2 22 -15 28 -28 5 -12 14 -30 20 -38 5 -8 44 -73 85 -145 41 -71 80 -137 85
-145 6 -8 15 -26 20 -39 6 -13 19 -35 29 -50 10 -14 31 -48 45 -76 15 -27 31
-57 37 -65 18 -29 155 -265 162 -280 4 -8 13 -24 20 -35 7 -11 30 -52 52 -90
22 -39 45 -79 52 -90 7 -11 15 -27 20 -35 4 -8 26 -47 50 -86 23 -39 44 -82
45 -95 l3 -24 -1858 -3 c-1799 -2 -1861 -1 -1945 17 -154 34 -235 76 -339 174
-51 48 -130 155 -153 208 -6 13 -19 38 -30 54 -11 17 -23 37 -27 45 -8 18
-119 208 -133 230 -6 8 -13 22 -17 30 -4 8 -39 69 -78 135 -39 66 -74 127 -78
135 -4 8 -16 29 -27 45 -11 17 -23 37 -27 45 -4 8 -29 52 -55 97 -52 87 -58
110 -31 115 26 5 4026 0 4045 -6z"/>
</g>
</svg>
