<svg xmlns="http://www.w3.org/2000/svg" version="1.0" preserveAspectRatio="xMidYMid meet" viewBox="0 114.17 900.16 673.73">
<metadata>
Created by potrace 1.10, written by Peter Selinger 2001-2011
</metadata>
<g transform="translate(0.000000,900.000000) scale(0.100000,-0.100000)" fill="#8ebea0" stroke="none" data-darkreader-inline-fill="" data-darkreader-inline-stroke="" style="--darkreader-inline-fill:#000000; --darkreader-inline-stroke:none;">
<path d="M700 7850 c-326 -41 -611 -303 -689 -633 -16 -67 -13 -310 4 -377 41 -161 123 -295 247 -402 47 -40 3680 -2470 3828 -2560 87 -52 291 -107 400 -107 62 0 212 28 279 53 77 28 158 74 284 158 67 46 127 85 132 88 6 3 46 30 90 60 44 30 88 59 97 65 9 5 151 100 315 210 164 110 306 204 315 210 9 5 171 113 360 240 189 126 351 234 360 240 9 5 50 32 90 60 40 27 81 54 90 60 9 5 151 100 315 210 164 110 306 204 315 210 14 8 329 219 616 411 41 27 84 56 97 64 13 8 56 37 97 65 40 27 81 54 90 60 73 44 234 158 286 203 121 105 226 277 247 405 4 23 11 37 20 37 22 0 22 295 1 303 -8 3 -18 23 -21 44 -15 91 -92 242 -173 338 -134 159 -313 258 -517 285 -81 11 -7490 11 -7575 0z"/>
<path d="M7114 4724 c-1028 -686 -1905 -1267 -1949 -1293 -125 -73 -244 -119 -410 -157 -114 -26 -416 -26 -530 0 -154 35 -283 83 -390 144 -33 19 -907 599 -1941 1288 -1035 690 -1885 1254 -1888 1254 -3 0 -6 -934 -6 -2075 0 -2123 0 -2109 38 -2210 80 -213 218 -369 412 -466 91 -46 156 -66 255 -79 94 -12 7476 -12 7570 0 203 27 383 125 517 284 79 93 158 248 173 339 3 21 13 41 21 44 12 4 14 281 14 2083 0 1166 -4 2081 -9 2084 -4 3 -849 -555 -1877 -1240z"/>
</g>
</svg>