<?xml version="1.0" standalone="no"?>
<!DOCTYPE svg PUBLIC "-//W3C//DTD SVG 20010904//EN"
 "http://www.w3.org/TR/2001/REC-SVG-20010904/DTD/svg10.dtd">
<svg version="1.0" xmlns="http://www.w3.org/2000/svg"
 width="300.000000pt" height="300.000000pt" viewBox="0 0 300.000000 300.000000"
 preserveAspectRatio="xMidYMid meet">
<metadata>
Created by potrace 1.10, written by Peter Selinger 2001-2011
</metadata>
<g transform="translate(0.000000,300.000000) scale(0.100000,-0.100000)"
fill="#FFFFFF" stroke="none">
<path d="M333 2985 c-162 -44 -276 -159 -318 -322 -22 -86 -22 -2240 0 -2326
43 -165 157 -279 322 -322 47 -12 142 -15 520 -15 l463 0 0 530 0 530 -175 0
-175 0 0 265 0 265 174 0 173 0 6 223 c5 232 13 280 59 372 48 93 140 184 234
231 101 50 136 54 467 54 l307 0 -2 -262 -3 -263 -267 -3 -268 -2 0 -175 0
-175 265 0 c256 0 265 -1 265 -20 0 -10 -18 -126 -40 -257 -22 -131 -40 -241
-40 -245 0 -5 -101 -8 -225 -8 l-225 0 0 -530 0 -530 378 0 c303 0 389 3 435
15 165 43 279 157 322 322 22 86 22 2240 0 2326 -43 165 -157 279 -322 322
-83 22 -2250 21 -2330 0z"/>
</g>
</svg>
