<?xml version="1.0" standalone="no"?>
<!DOCTYPE svg PUBLIC "-//W3C//DTD SVG 20010904//EN"
 "http://www.w3.org/TR/2001/REC-SVG-20010904/DTD/svg10.dtd">
<svg version="1.0" xmlns="http://www.w3.org/2000/svg"
 width="900.000000pt" height="900.000000pt" viewBox="0 0 900.000000 900.000000"
 preserveAspectRatio="xMidYMid meet">
<metadata>
Created by potrace 1.10, written by Peter Selinger 2001-2011
</metadata>
<g transform="translate(0.000000,900.000000) scale(0.100000,-0.100000)"
fill="#FFFFFF" stroke="none">
<path d="M730 8985 c0 -14 -8 -17 -70 -28 -82 -15 -221 -86 -320 -163 -156
-120 -278 -307 -323 -494 -15 -64 -15 -7556 0 -7620 76 -315 348 -587 663
-663 64 -15 7556 -15 7620 0 191 46 382 174 507 338 65 86 136 230 150 305 11
62 14 70 28 70 13 0 15 446 15 3760 0 3314 -2 3760 -15 3760 -14 0 -17 8 -28
70 -20 108 -116 276 -221 388 -104 111 -298 227 -416 249 -62 11 -70 14 -70
28 0 13 -446 15 -3760 15 -3314 0 -3760 -2 -3760 -15z m1502 -1241 c15 -8 36
-14 46 -14 19 0 124 -51 183 -88 59 -37 135 -107 171 -155 21 -28 42 -53 47
-56 4 -4 18 -24 30 -46 12 -22 25 -47 30 -55 8 -14 14 -30 51 -130 15 -41 33
-175 32 -240 0 -74 -17 -193 -30 -217 -7 -12 -12 -30 -12 -40 0 -23 -63 -144
-111 -215 -40 -58 -131 -146 -200 -193 -58 -40 -170 -95 -192 -95 -10 0 -28
-5 -40 -12 -24 -13 -145 -30 -217 -30 -72 0 -193 14 -215 25 -11 6 -33 14 -50
18 -52 13 -98 33 -142 62 -24 15 -47 27 -52 27 -5 0 -11 4 -13 10 -1 5 -26 26
-55 48 -48 36 -117 112 -155 171 -37 59 -88 164 -88 183 0 10 -8 33 -17 51
-24 47 -24 377 0 424 10 18 17 41 17 52 0 11 21 62 48 113 67 131 209 273 340
341 51 26 102 47 113 47 11 0 30 6 42 12 51 29 383 31 439 2z m4028 -2275 c25
-5 70 -14 100 -19 69 -11 135 -28 178 -46 18 -8 39 -14 47 -14 19 0 220 -96
260 -124 34 -24 63 -42 85 -52 70 -34 335 -284 395 -374 16 -25 33 -47 36 -50
4 -3 15 -21 25 -40 11 -19 28 -49 40 -65 50 -74 137 -277 155 -363 5 -23 13
-51 19 -61 5 -11 10 -33 10 -50 0 -16 7 -56 15 -88 13 -49 15 -241 15 -1420
l0 -1363 -672 2 -673 3 -5 1235 c-4 929 -9 1246 -18 1280 -27 101 -64 179
-121 255 -88 120 -193 198 -324 240 -29 10 -63 22 -75 26 -13 5 -56 12 -95 15
-129 11 -285 -34 -412 -118 -136 -90 -247 -253 -287 -423 -9 -36 -13 -383 -17
-1280 l-6 -1230 -670 0 -670 0 -3 2023 -2 2022 672 -2 673 -3 3 -245 c1 -134
6 -248 11 -253 5 -5 21 7 37 29 129 168 308 313 518 419 60 30 115 55 122 55
7 0 28 6 46 14 58 24 102 38 148 47 25 5 63 13 85 18 55 12 300 12 355 0z
m-3575 -2104 l0 -2020 -672 -3 -673 -2 0 2018 c0 1110 3 2022 7 2025 3 4 306
6 672 5 l666 -3 0 -2020z"/>
</g>
</svg>
