<?xml version="1.0" standalone="no"?>
<!DOCTYPE svg PUBLIC "-//W3C//DTD SVG 20010904//EN"
 "http://www.w3.org/TR/2001/REC-SVG-20010904/DTD/svg10.dtd">
<svg version="1.0" xmlns="http://www.w3.org/2000/svg"
 width="300.000000pt" height="215.000000pt" viewBox="0 0 300.000000 215.000000"
 preserveAspectRatio="xMidYMid meet">
<metadata>
Created by potrace 1.10, written by Peter Selinger 2001-2011
</metadata>
<g transform="translate(0.000000,215.000000) scale(0.050000,-0.050000)"
fill="#ffffff" stroke="none">
<path d="M2886 3691 c-86 -92 -196 -230 -246 -308 -105 -164 -97 -161 -213
-81 -119 82 -384 203 -416 191 -31 -12 -137 -280 -174 -443 l-27 -114 -90 12
c-49 7 -193 18 -318 25 l-228 13 13 -228 c7 -125 27 -291 43 -368 17 -77 30
-145 30 -152 0 -6 -45 -21 -99 -34 -142 -33 -409 -139 -469 -186 l-51 -40 69
-138 c38 -75 119 -210 180 -300 61 -89 106 -170 101 -179 -18 -28 -257 -86
-358 -86 -322 0 -106 -217 514 -517 708 -342 1244 -277 1903 230 15 11 79 -22
185 -96 699 -489 1323 -456 2198 117 276 181 294 268 55 268 -110 0 -357 69
-380 106 -7 11 10 44 38 74 83 88 334 520 334 574 0 21 -295 146 -474 201 -97
30 -178 56 -181 58 -2 1 9 73 25 158 17 86 30 246 30 357 l0 201 -225 -12
c-124 -7 -259 -19 -300 -26 -65 -11 -75 -8 -75 24 0 45 -151 487 -174 510 -18
18 -323 -121 -465 -211 -49 -31 -92 -49 -95 -39 -30 90 -414 565 -480 595 -13
6 -94 -64 -180 -156z m436 -366 c476 -687 413 -1369 -188 -2052 l-85 -98 -93
109 c-655 766 -659 1482 -12 2259 l103 124 87 -98 c48 -55 133 -164 188 -244z
m-1059 -97 c230 -127 223 -119 179 -205 -20 -40 -47 -109 -61 -153 -13 -44
-27 -91 -31 -103 -5 -16 -60 -1 -164 44 -86 38 -171 69 -190 69 -18 0 -38 7
-44 16 -12 21 110 424 129 424 8 0 89 -41 182 -92z m1826 -83 c31 -96 60 -185
65 -197 5 -13 -31 -33 -83 -46 -50 -12 -142 -45 -204 -73 -62 -27 -115 -47
-117 -44 -1 3 -24 64 -49 135 -25 72 -55 141 -66 155 -25 32 -40 20 175 142
228 129 212 133 279 -72z m641 -440 c-79 -898 -461 -1337 -1314 -1513 -210
-44 -214 -42 -133 43 316 333 501 760 507 1173 l4 237 68 29 c213 90 547 165
805 181 l76 4 -13 -154z m-3030 93 c163 -25 368 -85 502 -147 l103 -48 5 -206
c12 -388 182 -795 471 -1123 99 -113 92 -115 -201 -53 -793 167 -1240 712
-1240 1510 l0 110 115 -11 c63 -7 174 -21 245 -32z m3313 -726 c317 -107 302
-85 192 -267 -128 -212 -226 -347 -244 -336 -8 5 -61 40 -117 78 -56 38 -143
85 -193 104 -92 35 -109 55 -69 80 23 15 165 299 183 367 14 54 11 54 248 -26z
m-3633 -146 c45 -96 96 -191 115 -211 34 -38 12 -74 -46 -75 -12 0 -88 -44
-169 -97 l-148 -98 -54 74 c-29 41 -99 148 -155 238 -118 191 -133 168 176
274 105 36 193 67 195 67 2 1 41 -76 86 -172z m343 -474 c245 -221 743 -411
1084 -412 l83 -1 -100 -63 c-633 -399 -1086 -385 -1856 58 l-176 101 94 23
c108 28 260 102 386 188 90 61 345 214 359 214 3 0 61 -49 126 -108z m2920 42
c70 -36 204 -115 298 -175 94 -61 211 -122 260 -136 182 -55 184 -47 -42 -168
-752 -404 -1092 -426 -1673 -112 -220 118 -237 137 -122 137 289 1 779 208
994 422 113 113 126 114 285 32z"/>
</g>
</svg>
