<?xml version="1.0" standalone="no"?>
<!DOCTYPE svg PUBLIC "-//W3C//DTD SVG 20010904//EN"
 "http://www.w3.org/TR/2001/REC-SVG-20010904/DTD/svg10.dtd">
<svg version="1.0" xmlns="http://www.w3.org/2000/svg"
 width="300.000000pt" height="300.000000pt" viewBox="0 0 300.000000 300.000000"
 preserveAspectRatio="xMidYMid meet">
<metadata>
Created by potrace 1.10, written by Peter Selinger 2001-2011
</metadata>
<g transform="translate(0.000000,300.000000) scale(0.100000,-0.100000)"
fill="#FFFFFF" stroke="none">
<path d="M438 2985 c-200 -43 -381 -225 -424 -427 -20 -92 -20 -2024 0 -2116
44 -204 224 -384 428 -428 92 -20 2024 -20 2116 0 204 44 384 224 428 428 20
92 20 2024 0 2116 -44 204 -224 384 -428 428 -89 19 -2033 18 -2120 -1z m1557
-750 c63 -17 109 -42 161 -87 l32 -28 68 21 c38 12 93 32 122 46 29 14 56 23
58 20 16 -15 -72 -143 -126 -183 l-35 -26 44 6 c24 4 70 16 103 27 33 11 62
18 65 16 7 -8 -75 -104 -130 -152 l-54 -46 -7 -101 c-13 -183 -49 -325 -120
-469 -208 -419 -579 -650 -1046 -652 -147 0 -261 19 -396 68 -79 28 -224 99
-224 109 0 2 48 4 108 4 161 2 301 44 428 128 l57 38 -59 12 c-78 16 -143 47
-198 95 -44 39 -98 115 -111 157 -6 21 -4 22 64 22 38 0 73 5 76 10 3 6 0 10
-7 10 -7 0 -37 11 -66 25 -70 32 -164 123 -196 189 -26 54 -54 162 -43 172 3
3 35 -4 72 -15 113 -35 120 -30 54 37 -79 82 -103 145 -103 277 0 84 3 109 23
153 13 28 25 52 26 52 2 0 33 -31 69 -69 163 -168 402 -295 633 -336 147 -25
139 -30 139 73 1 102 23 170 82 247 104 137 268 194 437 150z"/>
</g>
</svg>
